<?xml version="1.0" standalone="no"?>
<!DOCTYPE svg PUBLIC "-//W3C//DTD SVG 20010904//EN"
 "http://www.w3.org/TR/2001/REC-SVG-20010904/DTD/svg10.dtd">
<svg version="1.0" xmlns="http://www.w3.org/2000/svg"
 width="52.000000pt" height="52.000000pt" viewBox="0 0 52.000000 52.000000"
 preserveAspectRatio="xMidYMid meet">
<metadata>
Created by potrace 1.10, written by Peter Selinger 2001-2011
</metadata>
<g transform="translate(0.000000,52.000000) scale(0.100000,-0.100000)"
fill="#ffffff" stroke="none">
<path d="M158 444 c-66 -20 -137 -87 -149 -141 -15 -70 2 -121 56 -170 107
-97 283 -97 390 0 84 76 84 178 0 254 -75 69 -189 90 -297 57z m226 -54 c123
-59 123 -201 1 -260 -164 -79 -376 23 -341 165 9 37 74 94 125 110 62 20 157
13 215 -15z"/>
</g>
</svg>
